<svg xmlns="http://www.w3.org/2000/svg" width="795" height="795" version="1.1" viewBox="0 0 795 795"><path fill="#000" fill-rule="evenodd" stroke="none" d="M 394.500 30.335 C 380.573 38.355, 360.028 50.416, 329.500 68.491 C 316.300 76.307, 288.400 92.741, 267.500 105.011 C 246.600 117.281, 203.175 142.846, 171 161.823 C 138.825 180.799, 104.742 200.865, 95.260 206.413 L 78.021 216.500 78.260 400.487 L 78.500 584.475 87.500 589.876 C 92.450 592.847, 115.400 606.525, 138.500 620.270 C 187.363 649.346, 259.520 692.399, 345.249 743.629 L 405.998 779.931 418.249 772.623 C 424.987 768.603, 444.450 757.007, 461.500 746.852 C 478.550 736.698, 519.050 712.567, 551.500 693.227 C 583.950 673.887, 638.400 641.460, 672.500 621.169 L 734.500 584.274 734.743 400.387 L 734.986 216.500 701.743 197.022 C 631.600 155.922, 549.068 107.529, 515 87.522 C 454.673 52.096, 408.160 24.998, 406.800 24.488 C 406.085 24.219, 400.550 26.850, 394.500 30.335 M 376.469 105.106 C 360.536 114.540, 323.425 136.440, 294 153.773 C 264.575 171.106, 231.725 190.466, 221 196.794 C 210.275 203.122, 185.863 217.505, 166.750 228.755 L 132 249.210 132 400.474 L 132 551.738 151.250 563.065 C 161.837 569.295, 195.925 589.449, 227 607.853 C 258.075 626.257, 293.400 647.154, 305.500 654.291 C 317.600 661.428, 344.572 677.397, 365.439 689.777 C 386.305 702.157, 404.095 712.474, 404.971 712.703 C 405.848 712.932, 428.600 700.117, 455.533 684.225 C 482.465 668.334, 527.225 641.928, 555 625.546 C 601.178 598.309, 643.432 573.298, 669.750 557.621 L 680 551.516 680 400.460 L 680 249.404 621.750 214.971 C 589.712 196.033, 549.775 172.465, 533 162.598 C 475.500 128.778, 464.451 122.269, 436.304 105.638 C 420.797 96.476, 407.508 88.748, 406.774 88.467 C 406.039 88.185, 392.402 95.673, 376.469 105.106 M 374.500 169.874 C 357.450 180.214, 337.425 192.517, 330 197.215 C 316.997 205.442, 273.203 232.245, 218.289 265.586 L 192.077 281.500 192.289 403.952 L 192.500 526.405 203.500 532.844 C 209.550 536.386, 221.138 543.234, 229.250 548.061 L 244 556.839 244 434.486 L 244 312.134 252.250 307.222 C 256.788 304.520, 282.775 289.022, 310 272.780 C 337.225 256.539, 370.300 236.919, 383.500 229.180 L 407.500 215.109 413.500 218.474 L 419.500 221.839 419.752 434.419 C 419.891 551.339, 420.282 647, 420.621 647 C 420.960 647, 432.694 640.411, 446.697 632.357 C 465.234 621.697, 472.407 617.061, 473.072 615.311 C 473.613 613.887, 473.989 527.177, 473.993 402.612 L 474 192.317 455.250 181.017 C 444.937 174.802, 429.663 165.505, 421.308 160.358 C 412.952 155.211, 405.977 151.017, 405.808 151.038 C 405.638 151.058, 391.550 159.535, 374.500 169.874 M 531 402.500 C 531 498.475, 531.337 576.981, 531.750 576.958 C 532.163 576.934, 543.525 570.724, 557 563.157 L 581.500 549.399 581.500 403.531 L 581.500 257.664 557.025 242.832 C 543.563 234.674, 532.201 228, 531.775 228 C 531.349 228, 531 306.525, 531 402.500 M 353.733 305.956 C 346.711 310.319, 331.974 319.355, 320.983 326.035 L 301 338.181 301 358.604 L 301 379.027 334.250 378.763 L 367.500 378.500 367.761 338.250 C 367.905 316.113, 367.680 298.005, 367.261 298.011 C 366.843 298.017, 360.755 301.592, 353.733 305.956 M 296 449 L 296 472 306.500 472 L 317 472 317.036 535.250 L 317.072 598.500 334.140 609 C 343.527 614.775, 354.832 621.862, 359.262 624.750 C 363.693 627.638, 367.471 630, 367.659 630 C 367.846 630, 368 584.100, 368 528 L 368 426 332 426 L 296 426 296 449"/></svg>